<svg width="253" height="99" viewBox="0 0 253 99" fill="none" xmlns="http://www.w3.org/2000/svg">
<g clip-path="url(#clip0_7578_6932)">
<path d="M19.9902 50.29L48.5002 78.8L77.0002 50.29H19.9902Z" fill="#014477"/>
<path d="M65.0598 18.66L66.9198 31.7L85.5098 50.29L48.4998 87.31L11.4798 50.29L30.8998 30.87L33.3898 17.2L0.299805 50.29L48.4998 98.49L96.6898 50.29L65.0598 18.66Z" fill="#014477"/>
<path d="M60.3398 4.82001H38.2798L37.5698 8.70999H60.8998L60.3398 4.82001Z" fill="#014477"/>
<path d="M30.77 46H66.22L64.48 33.82H32.99L30.77 46Z" fill="#014477"/>
<path d="M61.4098 12.3H36.9198L35.7998 18.43H62.2798L61.4098 12.3Z" fill="#014477"/>
<path d="M59.77 0.329956H39.01L38.75 2.12996H59.99L59.77 0.329956Z" fill="#014477"/>
<path d="M62.6901 21.29H35.2801L33.5801 30.6H64.0201L62.6901 21.29Z" fill="#014477"/>
<path d="M114.69 69.8C117.46 69.8 119.07 70.61 119.07 73.36C119.07 75.83 117.5 77.3 115.54 77.32L119.43 83.15H115.25L112.23 77.86H112.19V83.15H108.7V69.79H114.7H114.69V69.8ZM114.24 75.6C115.03 75.6 115.57 75.04 115.57 74.25C115.57 73.35 115.14 72.97 114.04 72.97H112.19V75.6H114.24Z" fill="#014477"/>
<path d="M130.09 69.8L133.67 83.16H130.01L129.25 80.28H125.29L124.57 83.16H121.02L124.67 69.8H130.09ZM126.07 77.22H128.45L127.37 72.21H127.33L126.07 77.22Z" fill="#014477"/>
<path d="M141.28 69.8L143.1 79.02H143.14L145.01 69.8H150.54V83.16H147.15V73.08H147.11L144.84 83.16H141.38L139.11 73.08H139.07V83.16H135.69V69.8H141.28Z" fill="#014477"/>
<path d="M159.03 69.8L160.85 79.02H160.89L162.76 69.8H168.29V83.16H164.91V73.08H164.87L162.6 83.16H159.14L156.87 73.08H156.83V83.16H153.44V69.8H159.03Z" fill="#014477"/>
<path d="M180.82 69.8V73.4H177.4V83.16H173.8V73.4H170.38V69.8H180.82Z" fill="#014477"/>
<path d="M191.79 69.8V73.08H186.15V74.88H191.79V78.05H186.15V79.99H191.79V83.16H182.88V69.8H191.79Z" fill="#014477"/>
<path d="M203.92 71.17V75.2C203.11 73.83 202.05 73.08 200.45 73.08C198.56 73.08 197.53 74.56 197.53 76.74C197.53 79.1 198.61 80.32 200.48 80.32C201.99 80.32 203.15 79.44 203.92 78.21V81.68C202.89 82.8 201.27 83.48 199.62 83.48C195.75 83.48 194.15 80.27 194.15 76.48C194.15 71.94 196.04 69.48 199.82 69.48C201.73 69.48 203.26 70.22 203.92 71.17Z" fill="#014477"/>
<path d="M210.16 69.8V74.61H213.76V69.8H217.36V83.16H213.76V77.99H210.16V83.16H206.56V69.8H210.16Z" fill="#014477"/>
<path d="M225.27 69.8L228.78 78.35H228.82V69.8H231.99V83.16H227.74L223.53 74.03H223.49V83.16H220.32V69.8H225.27Z" fill="#014477"/>
<path d="M238.59 69.8V83.16H234.99V69.8H238.59Z" fill="#014477"/>
<path d="M245.04 69.8V75.83H245.08L248.3 69.8H252.41L248.27 76.46L252.41 83.16H248.3L245.08 77.36H245.04V83.16H241.44V69.8H245.04Z" fill="#014477"/>
<path d="M127.12 37.71V28.37H130.94C135.04 28.37 137.54 29.68 137.54 32.96C137.54 36.24 134.87 37.71 130.67 37.71H127.12ZM108.7 63.11H127.07V47.69L137.57 63.11H157.7L150.91 53.95C149.24 51.65 144.91 45.8 144.83 45.84C152.06 42.93 155.33 36.65 155.33 31.72C155.33 24.41 148.54 16.46 135.29 16.5H108.71V63.1H108.7V63.11Z" fill="#014477"/>
<path d="M158.16 28.91V16.41H203.6V28.91H189.7V63.42H171.9V28.91H158.16Z" fill="#014477"/>
<path d="M252.36 60.57C246.72 62.91 239.19 64.2 233.34 64.2C212.46 64.2 204.83 50.39 204.83 40.09C204.83 25.44 217.09 15.34 234.55 15.34C240.32 15.34 247.06 16.32 252.4 18.4V31.15C247.41 28.52 241.6 27.14 237.04 27.14C228.13 27.14 223.04 35.57 223.04 39.74C223.04 48.24 226.82 53.35 237.37 51.9V46.98H231.64V36.82H252.36V60.56V60.57Z" fill="#014477"/>
</g>
<defs>
<clipPath id="clip0_7578_6932">
<rect width="253" height="99" fill="white"/>
</clipPath>
</defs>
</svg>
